<?xml version="1.0" encoding="UTF-8" standalone="no"?>
<svg
   xmlns:dc="http://purl.org/dc/elements/1.1/"
   xmlns:cc="http://creativecommons.org/ns#"
   xmlns:rdf="http://www.w3.org/1999/02/22-rdf-syntax-ns#"
   xmlns:svg="http://www.w3.org/2000/svg"
   xmlns="http://www.w3.org/2000/svg"
   xmlns:xlink="http://www.w3.org/1999/xlink"
   id="svg3734"
   height="36"
   width="36"
   viewBox="0 0 36 36"
   preserveAspectRatio="xMidYMid meet"
   version="1.1">
  <metadata
     id="metadata3738">
    <rdf:RDF>
      <cc:Work
         rdf:about="">
        <dc:format>image/svg+xml</dc:format>
        <dc:type
           rdf:resource="http://purl.org/dc/dcmitype/StillImage" />
        <dc:title></dc:title>
      </cc:Work>
    </rdf:RDF>
  </metadata>
  <defs
     id="defs3704">
    <path
       id="g4VswiO08W"
       d="M7 9L9 9L9 29L7 29L7 9Z" />
    <path
       id="b31mway9SE"
       d="M27 22L29 22L29 29L27 29L27 22Z" />
    <path
       id="a3kb4kEcv"
       d="M7 7L14 7L14 9L7 9L7 7Z" />
    <path
       id="a5kVVPltJl"
       d="M7 27L27 27L27 29L7 29L7 27Z" />
    <path
       id="agUgKOGV8"
       d="M17.75 7L29 18.25L29 7L17.75 7Z" />
    <path
       id="c4q1hg7neQ"
       d="M28.97 9.83L14.83 23.97L12 21.14L26.14 7L28.97 9.83Z" />
    <clipPath
       id="clipPath3766"
       clipPathUnits="userSpaceOnUse">
      <g
         id="use3768">
        <g
           style="fill:#ff0000"
           id="g3796">
          <use
             height="100%"
             width="100%"
             y="0"
             x="0"
             style="opacity:1;fill:#ff0000;fill-opacity:1"
             id="use3794"
             xlink:href="#g4VswiO08W" />
        </g>
        <g
           style="fill:#ff0000"
           id="g3800">
          <use
             height="100%"
             width="100%"
             y="0"
             x="0"
             style="opacity:1;fill:#ff0000;fill-opacity:1"
             id="use3798"
             xlink:href="#b31mway9SE" />
        </g>
        <g
           style="fill:#ff0000"
           id="g3804">
          <use
             height="100%"
             width="100%"
             y="0"
             x="0"
             style="opacity:1;fill:#ff0000;fill-opacity:1"
             id="use3802"
             xlink:href="#a3kb4kEcv" />
        </g>
        <g
           style="fill:#ff0000"
           id="g3808">
          <use
             height="100%"
             width="100%"
             y="0"
             x="0"
             style="opacity:1;fill:#ff0000;fill-opacity:1"
             id="use3806"
             xlink:href="#a5kVVPltJl" />
        </g>
      </g>
    </clipPath>
  </defs>
  <path
     id="path3852"
     d="m 8,8 v 20 h 20 v -6 h -2 v 4 H 10 V 10 h 4 V 8 Z"
     style="fill:#ffffff;fill-opacity:1;stroke:none;stroke-width:1px;stroke-linecap:butt;stroke-linejoin:miter;stroke-opacity:1" />
  <path
     id="path4659"
     d="M 28,8 H 18 l 3,3 -7,8 3,3 8,-7 3,3 z"
     style="fill:#ffffff;fill-opacity:1;stroke:none;stroke-width:1px;stroke-linecap:butt;stroke-linejoin:miter;stroke-opacity:1" />
</svg>
