<svg xmlns="http://www.w3.org/2000/svg" xmlns:svg="http://www.w3.org/2000/svg" xmlns:xlink="http://www.w3.org/1999/xlink" id="svg3734" width="36" height="36" preserveAspectRatio="xMidYMid meet" version="1.1" viewBox="0 0 36 36"><metadata id="metadata3738"/><defs id="defs3704"><path id="g4VswiO08W" d="M7 9L9 9L9 29L7 29L7 9Z"/><path id="b31mway9SE" d="M27 22L29 22L29 29L27 29L27 22Z"/><path id="a3kb4kEcv" d="M7 7L14 7L14 9L7 9L7 7Z"/><path id="a5kVVPltJl" d="M7 27L27 27L27 29L7 29L7 27Z"/><path id="agUgKOGV8" d="M17.75 7L29 18.25L29 7L17.75 7Z"/><path id="c4q1hg7neQ" d="M28.97 9.83L14.83 23.97L12 21.14L26.14 7L28.97 9.83Z"/><clipPath id="clipPath3766" clipPathUnits="userSpaceOnUse"><g id="use3768"><g style="fill:red" id="g3796"><use style="opacity:1;fill:red;fill-opacity:1" id="use3794" width="100%" height="100%" x="0" y="0" xlink:href="#g4VswiO08W"/></g><g style="fill:red" id="g3800"><use style="opacity:1;fill:red;fill-opacity:1" id="use3798" width="100%" height="100%" x="0" y="0" xlink:href="#b31mway9SE"/></g><g style="fill:red" id="g3804"><use style="opacity:1;fill:red;fill-opacity:1" id="use3802" width="100%" height="100%" x="0" y="0" xlink:href="#a3kb4kEcv"/></g><g style="fill:red" id="g3808"><use style="opacity:1;fill:red;fill-opacity:1" id="use3806" width="100%" height="100%" x="0" y="0" xlink:href="#a5kVVPltJl"/></g></g></clipPath></defs><path id="path3852" d="m 9,10 v 16 h 18 v -4 h -2 v 2 H 11 V 12 h 3 v -2 z" style="fill:red;fill-opacity:1;stroke:none;stroke-width:1px;stroke-linecap:butt;stroke-linejoin:miter;stroke-opacity:1"/><path id="path4659" d="M 28,9 H 18 l 3,3 -6,8 2,2 8,-6 3,3 z" style="fill:red;fill-opacity:1;stroke:none;stroke-width:1px;stroke-linecap:butt;stroke-linejoin:miter;stroke-opacity:1"/></svg>