<?xml version="1.0" encoding="UTF-8" standalone="no"?>
<svg
   xmlns:dc="http://purl.org/dc/elements/1.1/"
   xmlns:cc="http://creativecommons.org/ns#"
   xmlns:rdf="http://www.w3.org/1999/02/22-rdf-syntax-ns#"
   xmlns:svg="http://www.w3.org/2000/svg"
   xmlns="http://www.w3.org/2000/svg"
   xmlns:sodipodi="http://sodipodi.sourceforge.net/DTD/sodipodi-0.dtd"
   xmlns:inkscape="http://www.inkscape.org/namespaces/inkscape"
   viewBox="0 0 176 124"
   version="1.1"
   id="svg7"
   sodipodi:docname="logo.svg"
   inkscape:version="0.92.3 (2405546, 2018-03-11)">
  <metadata
     id="metadata13">
    <rdf:RDF>
      <cc:Work
         rdf:about="">
        <dc:format>image/svg+xml</dc:format>
        <dc:type
           rdf:resource="http://purl.org/dc/dcmitype/StillImage" />
      </cc:Work>
    </rdf:RDF>
  </metadata>
  <defs
     id="defs11" />
  <sodipodi:namedview
     pagecolor="#ffffff"
     bordercolor="#666666"
     borderopacity="1"
     objecttolerance="10"
     gridtolerance="10"
     guidetolerance="10"
     inkscape:pageopacity="0"
     inkscape:pageshadow="2"
     inkscape:window-width="3440"
     inkscape:window-height="1377"
     id="namedview9"
     showgrid="false"
     inkscape:zoom="1.6306818"
     inkscape:cx="10.731707"
     inkscape:cy="62"
     inkscape:window-x="1432"
     inkscape:window-y="302"
     inkscape:window-maximized="1"
     inkscape:current-layer="logo" />
  <g
     id="logo">
    <path
       d="M172.32,19.36A22.12,22.12,0,0,0,156.76,3.7C143,0,88,0,88,0S33,0,19.24,3.7A22.12,22.12,0,0,0,3.68,19.36C0,33.18,0,62,0,62s0,28.82,3.68,42.64A22.12,22.12,0,0,0,19.24,120.3C33,124,88,124,88,124s55,0,68.76-3.7a22.12,22.12,0,0,0,15.56-15.66C176,90.82,176,62,176,62S176,33.18,172.32,19.36Z"
       style="fill: #f00"
       id="YouTube" />
    <g
       id="icon-group"
       transform="matrix(4.4117645,0,0,4.4117645,-127.05594,-242.27177)"
       style="stroke:#ffffff">
      <path
         sodipodi:nodetypes="ccccccccccc"
         inkscape:connector-curvature="0"
         style="fill:#ffffff;fill-opacity:1;stroke:#ffffff;stroke-width:1px;stroke-linecap:butt;stroke-linejoin:miter;stroke-opacity:1"
         d="m 38.792683,61.921603 v 16 h 18 v -4 h -2 v 2 h -14 v -12 h 3 v -2 z"
         id="icon-video-player" />
      <path
         sodipodi:nodetypes="cccccccccc"
         inkscape:connector-curvature="0"
         id="icon-popout-player"
         d="m 46.699349,60.014937 v 11 h 12 v -11 z m 2,2 h 8 v 7 h -8 z"
         style="fill:#ffffff;stroke:#ffffff" />
    </g>
  </g>
</svg>
