<svg xmlns="http://www.w3.org/2000/svg" viewBox="0 0 176 124">
  <g>
    <path d="M172.32,19.36A22.12,22.12,0,0,0,156.76,3.7C143,0,88,0,88,0S33,0,19.24,3.7A22.12,22.12,0,0,0,3.68,19.36C0,33.18,0,62,0,62s0,28.82,3.68,42.64A22.12,22.12,0,0,0,19.24,120.3C33,124,88,124,88,124s55,0,68.76-3.7a22.12,22.12,0,0,0,15.56-15.66C176,90.82,176,62,176,62S176,33.18,172.32,19.36Z" style="fill: #f00"/>
    <g>
      <path d="M43,17v90h90V80h-9V98H52V26H70V17Z" style="fill: #fff"/>
      <path d="M133,17H88l13.5,13.5L70,66.5,83.5,80l36-31.5L133,62Z" style="fill: #fff"/>
    </g>
  </g>
</svg>
