<svg xmlns="http://www.w3.org/2000/svg" xmlns:svg="http://www.w3.org/2000/svg" id="svg7" version="1.1" viewBox="0 0 176 124"><metadata id="metadata13"/><g id="logo"><path style="fill:red" id="YouTube" d="M172.32,19.36A22.12,22.12,0,0,0,156.76,3.7C143,0,88,0,88,0S33,0,19.24,3.7A22.12,22.12,0,0,0,3.68,19.36C0,33.18,0,62,0,62s0,28.82,3.68,42.64A22.12,22.12,0,0,0,19.24,120.3C33,124,88,124,88,124s55,0,68.76-3.7a22.12,22.12,0,0,0,15.56-15.66C176,90.82,176,62,176,62S176,33.18,172.32,19.36Z"/><g id="icon-group" transform="matrix(4.4117645,0,0,4.4117645,-127.05594,-242.27177)" style="stroke:#fff"><path style="fill:#fff;fill-opacity:1;stroke:#fff;stroke-width:1px;stroke-linecap:butt;stroke-linejoin:miter;stroke-opacity:1" id="icon-video-player" d="m 38.792683,61.921603 v 16 h 18 v -4 h -2 v 2 h -14 v -12 h 3 v -2 z"/><path id="icon-popout-player" d="m 46.699349,60.014937 v 11 h 12 v -11 z m 2,2 h 8 v 7 h -8 z" style="fill:#fff;stroke:#fff"/></g></g></svg>