<svg xmlns="http://www.w3.org/2000/svg"
  xmlns:xlink="http://www.w3.org/1999/xlink" width="1024" height="1024" viewBox="0 0 1024 1024">
  <path fill="#ffffff" d="m 494.6176,350.44457 c 7.8,-0.96 15.54,-1.44 23.28,-1.5 v 38.34 c 0,3.9 4.5,6.06 7.56,3.66 l 76.86,-60.66 c 2.4,-1.92 2.4,-5.52 0,-7.38 l -76.8,-60.6 c -3.06,-2.4 -7.56,-0.24 -7.56,3.66 l -0.12,38.4 c -71.16,0.3 -141.48,32.04 -188.76,92.52 -41.76,53.52 -57.42,119.16 -48.66,181.44 h 44.94 c -0.54,-3.18 -1.02,-6.42 -1.44,-9.66 -3.06,-25.26 -1.26,-50.46 5.34,-74.88 6.84,-25.32 18.6,-48.66 34.86,-69.48 16.32,-20.82 36.18,-37.92 59.04,-50.58 22.2,-12.36 46.14,-20.16 71.46,-23.28 z" style="stroke-width:0.6" />
  <path fill="#ffffff" d="m 734.3176,450.52457 h -316.8 c -10.62,0 -19.2,8.58 -19.2,19.2 v 248.4 c 0,10.62 8.58,19.2 19.2,19.2 h 316.8 c 10.62,0 19.2,-8.58 19.2,-19.2 v -248.4 c 0,-10.62 -8.58,-19.2 -19.2,-19.2 z m -26.4,241.2 h -264 v -195.6 h 264 z" style="stroke-width:0.6" />
</svg>
