<svg xmlns="http://www.w3.org/2000/svg"
  xmlns:xlink="http://www.w3.org/1999/xlink" width="1024" height="1024" viewBox="0 0 1024 1024">
  <path fill="#ffffff" d="m 606.46016,450.50457 h -316.8 c -10.62,0 -19.2,8.58 -19.2,19.2 v 248.4 c 0,10.62 8.58,19.2 19.2,19.2 h 316.8 c 10.62,0 19.2,-8.58 19.2,-19.2 v -248.4 c 0,-10.62 -8.58,-19.2 -19.2,-19.2 z m -26.4,241.2 h -264 v -195.6 h 264 z" style="stroke-width:0.6" />
  <path fill="#ffffff" d="m 694.84016,396.80457 c -47.28,-60.42 -117.6,-92.16 -188.76,-92.52 l -0.12,-38.4 c 0,-3.9 -4.56,-6.06 -7.56,-3.66 l -76.8,60.6 c -2.4,1.86 -2.34,5.46 0,7.38 l 76.86,60.66 c 3.06,2.4 7.62,0.24 7.56,-3.66 v -38.34 c 7.74,0.06 15.54,0.54 23.28,1.5 25.26,3.12 49.26,10.92 71.4,23.22 22.86,12.72 42.72,29.82 59.04,50.58 16.26,20.82 28.02,44.22 34.86,69.48 6.6,24.42 8.4,49.62 5.34,74.88 -0.42,3.24 -0.84,6.48 -1.44,9.66 h 44.94 c 8.88,-62.16 -6.78,-127.8 -48.6,-181.38 z" style="stroke-width:0.6" />
</svg>
