<svg width="800px" height="800px" viewBox="0 0 24 24" fill="none"
  xmlns="http://www.w3.org/2000/svg">
  <path fill-rule="evenodd" clip-rule="evenodd" d="m 9.11853,6.5003499 c 0.275955,0.010235 0.49136,0.242235 0.481125,0.51819 L 9.55074,8.3374149 C 10.227275,7.8127399 11.077,7.5000049 12,7.5000049 c 2.20915,0 4,1.790865 4,3.9999951 0,2.20915 -1.79085,4 -4,4 -2.20914,0 -4,-1.79085 -4,-4 C 8,11.22385 8.22386,11 8.5,11 8.77614,11 9,11.22385 9,11.5 c 0,1.65685 1.343145,3 3,3 1.65685,0 3,-1.34315 3,-3 0,-1.6568451 -1.34315,-2.9999951 -3,-2.9999951 -0.7897,0 -1.508415,0.304965 -2.04451,0.80445 l 1.70256,0.19893 c 0.27425,0.03205 0.4706,0.28037 0.43855,0.5546501 -0.03205,0.274275 -0.28035,0.470665 -0.55465,0.438595 L 8.941975,10.192835 C 8.68294,10.16257 8.49068,9.9382949 8.500345,9.6776799 l 0.1,-2.696205 C 8.61058,6.7055199 8.84258,6.4901149 9.11853,6.5003499 Z" fill="#ffffff" style="stroke-width:0.5" />
</svg>
