<svg width="800px" height="800px" viewBox="0 0 24 24" fill="none"
  xmlns="http://www.w3.org/2000/svg">
  <path fill-rule="evenodd" clip-rule="evenodd" d="m 14.88145,6.5003499 c -0.27595,0.010235 -0.49135,0.242235 -0.4811,0.51819 l 0.0489,1.318875 C 13.77275,7.8127399 12.923,7.5000049 12,7.5000049 c -2.20914,0 -4,1.790865 -4,3.9999951 0,2.20915 1.79086,4 4,4 2.20915,0 4,-1.79085 4,-4 0,-0.27615 -0.22385,-0.5 -0.5,-0.5 -0.27615,0 -0.5,0.22385 -0.5,0.5 0,1.65685 -1.34315,3 -3,3 -1.656855,0 -3,-1.34315 -3,-3 0,-1.6568451 1.343145,-2.9999951 3,-2.9999951 0.7897,0 1.5084,0.304965 2.0445,0.80445 l -1.70255,0.19893 c -0.27425,0.03205 -0.4706,0.28037 -0.43855,0.5546501 0.03205,0.274275 0.28035,0.470665 0.55465,0.438595 l 2.6,-0.303795 c 0.259,-0.03026 0.45125,-0.2545401 0.4416,-0.5151551 l -0.1,-2.696205 c -0.01025,-0.275955 -0.24225,-0.49136 -0.5182,-0.481125 z" fill="#ffffff" style="stroke-width:0.5" />
</svg>
