<svg width="800px" height="800px" viewBox="0 0 24 24" fill="none"
  xmlns="http://www.w3.org/2000/svg">
  <path fill-rule="evenodd" clip-rule="evenodd" d="M17.7629 2.0007C17.211 2.02117 16.7802 2.48517 16.8007 3.03708L16.8985 5.67483C15.5455 4.62548 13.846 4.00001 12 4.00001C7.58172 4.00001 4 7.58174 4 12C4 16.4183 7.58172 20 12 20C16.4183 20 20 16.4183 20 12C20 11.4477 19.5523 11 19 11C18.4477 11 18 11.4477 18 12C18 15.3137 15.3137 18 12 18C8.68629 18 6 15.3137 6 12C6 8.68631 8.68629 6.00001 12 6.00001C13.5794 6.00001 15.0168 6.60994 16.089 7.60891L12.6839 8.00677C12.1354 8.07087 11.7427 8.56751 11.8068 9.11607C11.8709 9.66462 12.3675 10.0574 12.9161 9.99326L18.1161 9.38567C18.6341 9.32514 19.0186 8.87659 18.9993 8.35536L18.7993 2.96295C18.7788 2.41104 18.3148 1.98023 17.7629 2.0007Z" fill="#ffffff"/>
</svg>
