<?xml version="1.0" encoding="UTF-8" standalone="no"?>
<svg
   xmlns:dc="http://purl.org/dc/elements/1.1/"
   xmlns:cc="http://creativecommons.org/ns#"
   xmlns:rdf="http://www.w3.org/1999/02/22-rdf-syntax-ns#"
   xmlns:svg="http://www.w3.org/2000/svg"
   xmlns="http://www.w3.org/2000/svg"
   xmlns:sodipodi="http://sodipodi.sourceforge.net/DTD/sodipodi-0.dtd"
   xmlns:inkscape="http://www.inkscape.org/namespaces/inkscape"
   viewBox="0 0 176 124"
   version="1.1"
   id="svg12"
   sodipodi:docname="logo.svg"
   inkscape:version="0.92.3 (2405546, 2018-03-11)">
  <metadata
     id="metadata18">
    <rdf:RDF>
      <cc:Work
         rdf:about="">
        <dc:format>image/svg+xml</dc:format>
        <dc:type
           rdf:resource="http://purl.org/dc/dcmitype/StillImage" />
      </cc:Work>
    </rdf:RDF>
  </metadata>
  <defs
     id="defs16" />
  <sodipodi:namedview
     pagecolor="#ffffff"
     bordercolor="#666666"
     borderopacity="1"
     objecttolerance="10"
     gridtolerance="10"
     guidetolerance="10"
     inkscape:pageopacity="0"
     inkscape:pageshadow="2"
     inkscape:window-width="3440"
     inkscape:window-height="1377"
     id="namedview14"
     showgrid="false"
     inkscape:zoom="6.5227273"
     inkscape:cx="88"
     inkscape:cy="62"
     inkscape:window-x="1432"
     inkscape:window-y="302"
     inkscape:window-maximized="1"
     inkscape:current-layer="g8" />
  <g
     id="g10">
    <path
       d="M172.32,19.36A22.12,22.12,0,0,0,156.76,3.7C143,0,88,0,88,0S33,0,19.24,3.7A22.12,22.12,0,0,0,3.68,19.36C0,33.18,0,62,0,62s0,28.82,3.68,42.64A22.12,22.12,0,0,0,19.24,120.3C33,124,88,124,88,124s55,0,68.76-3.7a22.12,22.12,0,0,0,15.56-15.66C176,90.82,176,62,176,62S176,33.18,172.32,19.36Z"
       style="fill: #f00"
       id="path2" />
    <g
       id="g8">
      <path
         d="M 127.375,22.625 H 71.125 L 88,39.5 48.625,84.5 65.5,101.375 110.5,62 127.375,78.875 Z"
         style="fill:#ffffff;stroke-width:1.25"
         id="path6"
         inkscape:connector-curvature="0" />
    </g>
  </g>
</svg>
